HIERARCHY
ROOT RootJoint
{
    OFFSET   0.000000   0.000000   0.000000
    CHANNELS 6 Xposition Yposition Zposition Xrotation Yrotation Zrotation
    JOINT pelvis_lowerback
    {
        OFFSET   0.000000   0.093605   0.000000
        CHANNELS 3 Xrotation Yrotation Zrotation
        JOINT lowerback_torso
        {
            OFFSET   0.000000   0.100000   0.000000
            CHANNELS 3 Xrotation Yrotation Zrotation
            JOINT torso_head
            {
                OFFSET   0.000000   0.282350   0.000000
                CHANNELS 3 Xrotation Yrotation Zrotation
                End Site
                {
                    OFFSET   0.000000   0.192650   0.000000
                }
            }
            JOINT rTorso_Clavicle
            {
                OFFSET  -0.001000   0.157500   0.000000
                CHANNELS 3 Xrotation Yrotation Zrotation
                JOINT rShoulder
                {
                    OFFSET  -0.117647   0.000000   0.000000
                    CHANNELS 3 Xrotation Yrotation Zrotation
                    JOINT rElbow
                    {
                        OFFSET  -0.245000   0.000000   0.000000
                        CHANNELS 3 Xrotation Yrotation Zrotation
                        JOINT rWrist
                        {
                            OFFSET  -0.240000   0.000000   0.000000
                            CHANNELS 3 Xrotation Yrotation Zrotation
                            End Site
                            {
                                OFFSET  -0.116353  -0.002500   0.000000
                            }
                        }
                    }
                }
            }
            JOINT lTorso_Clavicle
            {
                OFFSET   0.001000   0.157500   0.000000
                CHANNELS 3 Xrotation Yrotation Zrotation
                JOINT lShoulder
                {
                    OFFSET   0.117647   0.000000   0.000000
                    CHANNELS 3 Xrotation Yrotation Zrotation
                    JOINT lElbow
                    {
                        OFFSET   0.245000   0.000000   0.000000
                        CHANNELS 3 Xrotation Yrotation Zrotation
                        JOINT lWrist
                        {
                            OFFSET   0.240000   0.000000   0.000000
                            CHANNELS 3 Xrotation Yrotation Zrotation
                            End Site
                            {
                                OFFSET   0.116353  -0.002500   0.000000
                            }
                        }
                    }
                }
            }
        }
    }
    JOINT rHip
    {
        OFFSET  -0.100000  -0.051395   0.000000
        CHANNELS 3 Xrotation Yrotation Zrotation
        JOINT rKnee
        {
            OFFSET   0.000000  -0.410000   0.000000
            CHANNELS 3 Xrotation Yrotation Zrotation
            JOINT rAnkle
            {
                OFFSET   0.000000  -0.390000   0.000000
                CHANNELS 3 Xrotation Yrotation Zrotation
                JOINT rToeJoint
                {
                    OFFSET   0.000000  -0.050000   0.130000
                    CHANNELS 3 Xrotation Yrotation Zrotation
                    End Site
                    {
                        OFFSET  -0.010000   0.002000   0.060000
                    }
                }
            }
        }
    }
    JOINT lHip
    {
        OFFSET   0.100000  -0.051395   0.000000
        CHANNELS 3 Xrotation Yrotation Zrotation
        JOINT lKnee
        {
            OFFSET   0.000000  -0.410000   0.000000
            CHANNELS 3 Xrotation Yrotation Zrotation
            JOINT lAnkle
            {
                OFFSET   0.000000  -0.390000   0.000000
                CHANNELS 3 Xrotation Yrotation Zrotation
                JOINT lToeJoint
                {
                    OFFSET   0.000000  -0.050000   0.130000
                    CHANNELS 3 Xrotation Yrotation Zrotation
                    End Site
                    {
                        OFFSET   0.010000   0.002000   0.060000
                    }
                }
            }
        }
    }
}
MOTION
Frames: 10
Frame Time:   0.008333
 -2.411308   0.919595   4.223169   0.463023  16.236750   3.938769   0.892705  -2.566635  -5.917063   9.842100  -4.546048   2.306054  -0.247989  -1.166457   2.432217   2.495761  -2.919560  31.211960   9.031779   4.578897  26.073799  -0.000012   9.233802  -0.000008  17.473299   2.651914   4.994312   5.951024  -1.166988 -27.068680  13.596206  -9.340087 -26.539030  -0.001892 -15.955811   0.001824   9.675601  -3.814127  -5.344508   4.920271  -3.035450  -7.276877   4.988548  -0.000019  -0.000033  -9.906736  -5.705095   2.188581  -0.545210   0.000000   0.000000   4.711234  -0.176565   3.846458  -0.000000   0.000000   0.000000   2.322134   4.147910  -0.624250 -11.103928   0.000001   0.000005
 -2.411119   0.919538   4.223525   0.423045  16.243359   3.940324   0.864307  -2.540987  -5.926275   9.879532  -4.518761   2.307302  -0.226911  -1.172584   2.465391   2.515562  -2.937016  31.261578   9.038884   4.612199  26.145146  -0.000009   9.234222  -0.000006  17.485036   2.648050   4.961018   5.991656  -1.059011 -27.077705  13.653730  -9.200451 -26.636939  -0.001781 -15.709808   0.001767   9.676339  -3.786703  -5.385981   5.034358  -3.029700  -7.268030   4.903317  -0.000021  -0.000044  -9.894552  -5.729072   2.191068  -0.544960   0.000000   0.000000   4.780172  -0.169637   3.852246  -0.000000   0.000000   0.000000   2.267800   4.138066  -0.626418 -11.068984   0.000004   0.000005
 -2.410914   0.919479   4.223877   0.384069  16.251529   3.942789   0.834386  -2.513976  -5.935974   9.914914  -4.490878   2.308775  -0.206739  -1.178398   2.496772   2.534893  -2.953927  31.310259   9.045712   4.643343  26.213615  -0.000007   9.234775  -0.000005  17.496975   2.644910   4.930036   6.033278  -0.954520 -27.086854  13.709244  -9.066952 -26.729918  -0.001665 -15.478710   0.001702   9.677484  -3.755141  -5.428753   5.145319  -3.025690  -7.261503   4.822592  -0.000023  -0.000051  -9.885072  -5.752750   2.193285  -0.544365   0.000000   0.000000   4.847914  -0.163814   3.855955  -0.000000   0.000000   0.000000   2.213279   4.127598  -0.629484 -11.033613   0.000006   0.000006
 -2.410696   0.919421   4.224217   0.347525  16.261252   3.945688   0.804383  -2.486274  -5.945517   9.946910  -4.462606   2.310225  -0.188227  -1.183803   2.526006   2.552941  -2.969666  31.357217   9.052001   4.672642  26.278590  -0.000005   9.235379  -0.000004  17.508342   2.642890   4.901970   6.074226  -0.854841 -27.095901  13.762128  -8.940631 -26.817559  -0.001546 -15.262328   0.001630   9.678878  -3.721367  -5.472179   5.250680  -3.023300  -7.257228   4.746935  -0.000024  -0.000055  -9.877769  -5.776012   2.195147  -0.543412   0.000000   0.000000   4.912303  -0.159278   3.857624  -0.000000   0.000000   0.000000   2.159437   4.116768  -0.633088 -10.997926   0.000009   0.000006
 -2.410466   0.919363   4.224541   0.313602  16.272269   3.948799   0.774919  -2.458365  -5.954710   9.975646  -4.434387   2.311581  -0.171183  -1.188801   2.553240   2.569310  -2.983926  31.401947   9.057618   4.700518  26.339823  -0.000003   9.236136  -0.000004  17.519143   2.642155   4.876013   6.113488  -0.760558 -27.104609  13.812064  -8.821848 -26.899842  -0.001425 -15.060050   0.001549   9.680380  -3.687264  -5.515187   5.350160  -3.022276  -7.254953   4.675874  -0.000026  -0.000057  -9.872043  -5.798806   2.196641  -0.542125   0.000000   0.000000   4.972895  -0.155888   3.857475  -0.000000   0.000000   0.000000   2.106611   4.105711  -0.637101 -10.962000   0.000011   0.000006
 -2.410228   0.919306   4.224847   0.282263  16.284205   3.951981   0.746269  -2.430646  -5.963539  10.001357  -4.406594   2.312789  -0.155399  -1.193416   2.578630   2.583876  -2.996636  31.444191   9.062522   4.727203  26.397246  -0.000002   9.237100  -0.000003  17.529402   2.642788   4.851412   6.150537  -0.671867 -27.112836  13.858941  -8.710603 -26.976875  -0.001306 -14.871157   0.001463   9.681897  -3.654019  -5.557038   5.443833  -3.022347  -7.254436   4.608997  -0.000027  -0.000058  -9.867487  -5.821018   2.197771  -0.540529   0.000000   0.000000   5.029666  -0.153432   3.855730  -0.000000   0.000000  -0.000000   2.054966   4.094596  -0.641453 -10.925939   0.000013   0.000007
 -2.409983   0.919251   4.225136   0.253396  16.296691   3.955142   0.718541  -2.403447  -5.972066  10.024265  -4.379530   2.313787  -0.140730  -1.197676   2.602310   2.596679  -3.007856  31.483843   9.066737   4.752802  26.450909  -0.000001   9.238273  -0.000003  17.539147   2.644736   4.827661   6.185116  -0.588752 -27.120504  13.902766  -8.606709 -27.048841  -0.001190 -14.694894   0.001371   9.683373  -3.622325  -5.597279   5.531895  -3.023265  -7.255462   4.545974  -0.000029  -0.000057  -9.863831  -5.842528   2.198555  -0.538655   0.000000   0.000000   5.082751  -0.151702   3.852594  -0.000000   0.000000  -0.000000   2.004588   4.083585  -0.646095 -10.889861   0.000015   0.000007
 -2.409701   0.919132   4.225441   0.220568  16.317057   3.929740   0.677851  -2.378188  -5.956427  10.068891  -4.353667   2.328258  -0.125990  -1.201200   2.628420   2.614428  -3.009791  31.519020   9.053623   4.775357  26.491917  -0.000005   9.230903   0.000000  17.555763   2.642150   4.806638   6.215093  -0.510139 -27.121539  13.920327  -8.506682 -27.136302  -0.001076 -14.531702   0.001313   9.684040  -3.595144  -5.646561   5.619126  -3.027754  -7.227583   4.501225  -0.000028  -0.000054  -9.870302  -5.864830   2.211968  -0.539531   0.000000   0.000000   5.144450  -0.175202   3.879413  -0.000000   0.000000  -0.000000   2.031252   4.080436  -0.621039 -11.436634   0.000096   0.000067
 -2.409404   0.919074   4.225714   0.190712  16.345873   3.940117   0.638728  -2.354987  -5.976080  10.110602  -4.330952   2.334211  -0.111796  -1.204533   2.653405   2.629847  -3.010263  31.563735   9.040607   4.798085  26.535228  -0.000008   9.223975   0.000003  17.572048   2.635960   4.785599   6.240472  -0.438328 -27.120076  13.935999  -8.413595 -27.213541  -0.000973 -14.379067   0.001247   9.685077  -3.567997  -5.688000   5.699482  -3.038621  -7.238817   4.458729  -0.000029  -0.000052  -9.877989  -5.892691   2.220459  -0.538542   0.000000   0.000000   5.198566  -0.194828   3.866815  -0.000000   0.000000  -0.000000   1.953639   4.080612  -0.628559 -11.267834   0.000110   0.000072
 -2.409102   0.919028   4.225964   0.163823  16.374641   3.955578   0.602524  -2.331062  -5.996404  10.147961  -4.308975   2.335625  -0.098474  -1.207528   2.675180   2.643393  -3.009877  31.606147   9.028020   4.820442  26.577236  -0.000010   9.218082   0.000005  17.587426   2.633288   4.769056   6.263210  -0.371748 -27.118267  13.950142  -8.327730 -27.285971  -0.000876 -14.237313   0.001175   9.685790  -3.545147  -5.727253   5.774224  -3.049960  -7.256825   4.417469  -0.000029  -0.000051  -9.885152  -5.920290   2.225821  -0.536616   0.000000   0.000000   5.246451  -0.215270   3.847271  -0.000000   0.000000  -0.000000   1.894057   4.078128  -0.633951 -11.140554   0.000112   0.000069
